<?xml version="1.0" encoding="utf-8"?>
<!-- Generator: Adobe Illustrator 19.0.0, SVG Export Plug-In . SVG Version: 6.00 Build 0)  -->
<svg version="1.1" id="Layer_1" xmlns="http://www.w3.org/2000/svg" xmlns:xlink="http://www.w3.org/1999/xlink" x="0px" y="0px"
	 viewBox="0 0 288 288" style="enable-background:new 0 0 288 288;" xml:space="preserve">
<style type="text/css">
	.st0{fill:#FBFBFB;}
	.st1{fill:#FFFAEE;}
	.st2{fill:#433F5D;}
	.st3{fill:#E5C7C1;}
	.st4{fill:#D46391;}
	.st5{fill:#FFE4F9;}
</style>
<g id="XMLID_1_">
	<rect id="XMLID_2_" y="0" class="st0" width="288" height="288"/>
	<rect id="XMLID_3_" y="0" class="st1" width="288" height="288"/>
	<g id="XMLID_4_">
		<g id="XMLID_5_">
			<path id="XMLID_6_" class="st2" d="M65.3,261.5l1.7,1.9c0.2,0.2,0.2,0.6,0,0.7c-0.2,0.2-0.6,0.2-0.7,0l-1.7-1.9
				c-0.2-0.2-0.2-0.6,0-0.7C64.7,261.3,65.1,261.3,65.3,261.5z"/>
		</g>
		<g id="XMLID_7_">
			<path id="XMLID_8_" class="st2" d="M135,29.3l-2.8,1.1c-0.3,0.1-0.7,0-0.8-0.4c-0.1-0.3,0-0.7,0.4-0.8l2.8-1.1
				c0.3-0.1,0.7,0,0.8,0.4C135.5,28.9,135.3,29.2,135,29.3z"/>
		</g>
		<g id="XMLID_9_">
			<path id="XMLID_10_" class="st2" d="M144.5,94.3l-2.2,1.8c-0.3,0.2-0.6,0.2-0.8-0.1c-0.2-0.3-0.2-0.6,0.1-0.8l2.2-1.8
				c0.3-0.2,0.6-0.2,0.8,0.1C144.8,93.7,144.8,94.1,144.5,94.3z"/>
		</g>
		<g id="XMLID_11_">
			<path id="XMLID_12_" class="st2" d="M148.2,248.7l3.7,2.6c0.4,0.3,0.5,0.9,0.2,1.3c-0.3,0.4-0.9,0.5-1.3,0.2l-3.7-2.6
				c-0.4-0.3-0.5-0.9-0.2-1.3C147.2,248.6,147.7,248.4,148.2,248.7z"/>
		</g>
		<g id="XMLID_13_">
			<path id="XMLID_14_" class="st2" d="M41.4,60.4l4.2-5.5c0.5-0.6,1.4-0.8,2-0.3c0.6,0.5,0.8,1.4,0.3,2l-4.2,5.5
				c-0.5,0.6-1.4,0.8-2,0.3C41.1,61.9,41,61,41.4,60.4z"/>
		</g>
		<g id="XMLID_15_">
			<path id="XMLID_16_" class="st2" d="M219.4,47.5l-1.8-2.6c-0.2-0.3-0.1-0.7,0.2-0.9c0.3-0.2,0.7-0.1,0.9,0.2l1.8,2.6
				c0.2,0.3,0.1,0.7-0.2,0.9C220,47.8,219.6,47.8,219.4,47.5z"/>
		</g>
		<g id="XMLID_17_">
			<path id="XMLID_18_" class="st2" d="M229.2,31.1l4.2-3.8c0.5-0.4,1.2-0.4,1.7,0.1c0.4,0.5,0.4,1.2-0.1,1.7l-4.2,3.8
				c-0.5,0.4-1.2,0.4-1.7-0.1C228.7,32.2,228.7,31.5,229.2,31.1z"/>
		</g>
		<g id="XMLID_19_">
			<path id="XMLID_20_" class="st2" d="M127.5,101.8l-2.2,2.5c-0.3,0.3-0.7,0.3-1,0.1c-0.3-0.3-0.3-0.7-0.1-1l2.2-2.5
				c0.3-0.3,0.7-0.3,1-0.1C127.7,101.1,127.7,101.5,127.5,101.8z"/>
		</g>
		<g id="XMLID_21_">
			<path id="XMLID_22_" class="st2" d="M56,118.1l-2.4,6.9c-0.3,0.8-1.1,1.2-1.9,0.9c-0.8-0.3-1.2-1.1-0.9-1.9l2.4-6.9
				c0.3-0.8,1.1-1.2,1.9-0.9C55.9,116.4,56.3,117.3,56,118.1z"/>
		</g>
		<g id="XMLID_23_">
			<path id="XMLID_24_" class="st2" d="M56.3,83.1L50.9,79c-0.6-0.5-0.7-1.3-0.3-2c0.5-0.6,1.3-0.7,2-0.3l5.4,4.1
				c0.6,0.5,0.7,1.3,0.3,2C57.8,83.4,56.9,83.5,56.3,83.1z"/>
		</g>
		<g id="XMLID_25_">
			<path id="XMLID_26_" class="st2" d="M37.8,184.1l-0.7,4.6c-0.1,0.5-0.6,0.9-1.1,0.8c-0.5-0.1-0.9-0.6-0.8-1.1l0.7-4.6
				c0.1-0.5,0.6-0.9,1.1-0.8C37.5,183.1,37.9,183.6,37.8,184.1z"/>
		</g>
		<g id="XMLID_27_">
			<path id="XMLID_28_" class="st2" d="M253,111.7l3.3,6.1c0.4,0.7,0.1,1.6-0.6,2c-0.7,0.4-1.6,0.1-2-0.6l-3.3-6.1
				c-0.4-0.7-0.1-1.6,0.6-2C251.7,110.7,252.6,111,253,111.7z"/>
		</g>
		<g id="XMLID_29_">
			<path id="XMLID_30_" class="st2" d="M233,133.7l-5.7,4.3c-0.7,0.5-1.6,0.4-2.1-0.3c-0.5-0.7-0.4-1.6,0.3-2.1l5.7-4.3
				c0.7-0.5,1.6-0.4,2.1,0.3C233.8,132.3,233.7,133.3,233,133.7z"/>
		</g>
		<g id="XMLID_31_">
			<path id="XMLID_32_" class="st2" d="M249.6,50.4l-4.7,2.1c-0.5,0.2-1.2,0-1.4-0.5c-0.2-0.5,0-1.2,0.5-1.4l4.7-2.1
				c0.5-0.2,1.2,0,1.4,0.5C250.4,49.5,250.2,50.2,249.6,50.4z"/>
		</g>
		<g id="XMLID_33_">
			<path id="XMLID_34_" class="st2" d="M174.4,148.4l-0.4,9.7c0,1.1-1,2-2.1,1.9c-1.1,0-2-1-1.9-2.1l0.4-9.7c0-1.1,1-2,2.1-1.9
				C173.6,146.4,174.4,147.3,174.4,148.4z"/>
		</g>
		<g id="XMLID_35_">
			<path id="XMLID_36_" class="st2" d="M91.9,156.9l4.3-0.2c0.5,0,0.9,0.4,0.9,0.8c0,0.5-0.3,0.9-0.8,0.9l-4.3,0.2
				c-0.5,0-0.9-0.4-0.9-0.8C91,157.3,91.4,156.9,91.9,156.9z"/>
		</g>
		<g id="XMLID_37_">
			<path id="XMLID_38_" class="st2" d="M201.8,33.2l-1.2,2.1c-0.1,0.2-0.4,0.3-0.7,0.2c-0.2-0.1-0.3-0.4-0.2-0.7l1.2-2.1
				c0.1-0.2,0.4-0.3,0.7-0.2C201.9,32.6,202,32.9,201.8,33.2z"/>
		</g>
		<g id="XMLID_39_">
			<path id="XMLID_40_" class="st2" d="M254.7,28.6l6.9-1.9c0.8-0.2,1.6,0.2,1.8,1c0.2,0.8-0.2,1.6-1,1.8l-6.9,1.9
				c-0.8,0.2-1.6-0.2-1.8-1C253.4,29.7,253.9,28.9,254.7,28.6z"/>
		</g>
		<g id="XMLID_41_">
			<path id="XMLID_42_" class="st2" d="M105.5,30.6l-1.5-4.5c-0.2-0.5,0.1-1.1,0.6-1.3c0.5-0.2,1.1,0.1,1.3,0.6l1.5,4.5
				c0.2,0.5-0.1,1.1-0.6,1.3C106.2,31.4,105.6,31.1,105.5,30.6z"/>
		</g>
		<g id="XMLID_43_">
			<path id="XMLID_44_" class="st2" d="M165.4,109l-5.8-4.1c-0.7-0.5-0.8-1.4-0.3-2c0.5-0.7,1.4-0.8,2-0.3l5.8,4.1
				c0.7,0.5,0.8,1.4,0.3,2C166.9,109.3,166,109.4,165.4,109z"/>
		</g>
		<g id="XMLID_45_">
			<path id="XMLID_46_" class="st2" d="M131.8,132.2l3.3,3.1c0.4,0.3,0.4,0.9,0.1,1.3c-0.3,0.4-0.9,0.4-1.3,0.1l-3.3-3.1
				c-0.4-0.3-0.4-0.9-0.1-1.3C130.8,131.9,131.4,131.9,131.8,132.2z"/>
		</g>
		<g id="XMLID_47_">
			<path id="XMLID_48_" class="st2" d="M179.2,9l-0.4-2.6c0-0.3,0.2-0.6,0.5-0.6c0.3,0,0.6,0.2,0.6,0.5l0.4,2.6
				c0,0.3-0.2,0.6-0.5,0.6C179.5,9.5,179.3,9.3,179.2,9z"/>
		</g>
		<g id="XMLID_49_">
			<path id="XMLID_50_" class="st2" d="M194.3,190.8l1.1-2.3c0.1-0.3,0.4-0.4,0.7-0.2c0.3,0.1,0.4,0.4,0.2,0.7l-1.1,2.3
				c-0.1,0.3-0.4,0.4-0.7,0.2C194.2,191.4,194.1,191,194.3,190.8z"/>
		</g>
		<g id="XMLID_51_">
			<path id="XMLID_52_" class="st2" d="M205.3,94.2l-5.6-2.3c-0.6-0.3-0.9-1-0.7-1.6c0.3-0.6,1-0.9,1.6-0.7l5.6,2.3
				c0.6,0.3,0.9,1,0.7,1.6C206.6,94.2,205.9,94.5,205.3,94.2z"/>
		</g>
		<g id="XMLID_53_">
			<path id="XMLID_54_" class="st2" d="M95.9,104.1l0.8,3.2c0.1,0.4-0.1,0.7-0.5,0.8c-0.4,0.1-0.7-0.1-0.8-0.5l-0.8-3.2
				c-0.1-0.4,0.1-0.7,0.5-0.8C95.5,103.5,95.8,103.7,95.9,104.1z"/>
		</g>
		<g id="XMLID_55_">
			<path id="XMLID_56_" class="st2" d="M168.6,183.3l7.7-1.4c0.9-0.2,1.7,0.4,1.9,1.3c0.2,0.9-0.4,1.7-1.3,1.9l-7.7,1.4
				c-0.9,0.2-1.7-0.4-1.9-1.3C167.1,184.3,167.7,183.4,168.6,183.3z"/>
		</g>
		<g id="XMLID_57_">
			<path id="XMLID_58_" class="st2" d="M220.4,236.3l8.7-3.3c1-0.4,2.1,0.1,2.5,1.1c0.4,1-0.1,2.1-1.1,2.5l-8.7,3.3
				c-1,0.4-2.1-0.1-2.5-1.1C218.9,237.8,219.4,236.7,220.4,236.3z"/>
		</g>
		<g id="XMLID_59_">
			<path id="XMLID_60_" class="st2" d="M28.7,18.2l8.2-0.2c0.9,0,1.7,0.7,1.7,1.6c0,0.9-0.7,1.7-1.6,1.7l-8.2,0.2
				c-0.9,0-1.7-0.7-1.7-1.6C27,19,27.7,18.2,28.7,18.2z"/>
		</g>
		<g id="XMLID_61_">
			<path id="XMLID_62_" class="st2" d="M191.8,76.4l-1.1-5.5c-0.1-0.6,0.3-1.2,0.9-1.4c0.6-0.1,1.2,0.3,1.4,0.9l1.1,5.5
				c0.1,0.6-0.3,1.2-0.9,1.4C192.5,77.4,191.9,77,191.8,76.4z"/>
		</g>
		<g id="XMLID_63_">
			<path id="XMLID_64_" class="st2" d="M99.1,189.2l6.8-2.7c0.8-0.3,1.7,0.1,2,0.8c0.3,0.8-0.1,1.7-0.8,2l-6.8,2.7
				c-0.8,0.3-1.7-0.1-2-0.8C98,190.4,98.3,189.5,99.1,189.2z"/>
		</g>
		<g id="XMLID_65_">
			<path id="XMLID_66_" class="st2" d="M280.6,41.4l-5.6-1c-0.6-0.1-1.1-0.7-0.9-1.4c0.1-0.6,0.7-1.1,1.4-0.9l5.6,1
				c0.6,0.1,1.1,0.7,0.9,1.4C281.9,41.1,281.2,41.5,280.6,41.4z"/>
		</g>
		<g id="XMLID_67_">
			<path id="XMLID_68_" class="st2" d="M83.4,234.8l-6.9,6.7c-0.8,0.8-2,0.7-2.8,0c-0.8-0.8-0.7-2,0-2.8l6.9-6.7
				c0.8-0.8,2-0.7,2.8,0C84.3,232.8,84.2,234.1,83.4,234.8z"/>
		</g>
		<g id="XMLID_69_">
			<path id="XMLID_70_" class="st2" d="M175.6,273.8l-2.5-1.8c-0.3-0.2-0.4-0.6-0.1-0.9c0.2-0.3,0.6-0.4,0.9-0.2l2.5,1.8
				c0.3,0.2,0.4,0.6,0.2,0.9C176.3,273.9,175.9,274,175.6,273.8z"/>
		</g>
		<g id="XMLID_71_">
			<path id="XMLID_72_" class="st2" d="M46.5,142.2l-3.7-2.1c-0.4-0.2-0.6-0.8-0.3-1.2c0.2-0.4,0.8-0.6,1.2-0.3l3.7,2.1
				c0.4,0.2,0.6,0.8,0.3,1.2C47.5,142.3,46.9,142.4,46.5,142.2z"/>
		</g>
		<g id="XMLID_73_">
			<path id="XMLID_74_" class="st2" d="M225.9,270.5l6.7,6.9c0.8,0.8,0.7,2-0.1,2.8c-0.8,0.8-2,0.7-2.8-0.1l-6.7-6.9
				c-0.8-0.8-0.7-2,0.1-2.8C223.8,269.7,225.1,269.7,225.9,270.5z"/>
		</g>
		<g id="XMLID_75_">
			<path id="XMLID_76_" class="st2" d="M181.4,91.9l-2.1,3c-0.2,0.3-0.7,0.4-1.1,0.2c-0.3-0.2-0.4-0.7-0.2-1.1l2.1-3
				c0.2-0.3,0.7-0.4,1.1-0.2C181.5,91.1,181.6,91.6,181.4,91.9z"/>
		</g>
		<g id="XMLID_77_">
			<path id="XMLID_78_" class="st2" d="M46.1,272.3l-2.2-1.8c-0.3-0.2-0.3-0.6-0.1-0.8c0.2-0.3,0.6-0.3,0.8-0.1l2.2,1.8
				c0.3,0.2,0.3,0.6,0.1,0.8C46.8,272.5,46.4,272.5,46.1,272.3z"/>
		</g>
		<g id="XMLID_79_">
			<path id="XMLID_80_" class="st2" d="M263.1,92.8l-0.8,3.4c-0.1,0.4-0.5,0.6-0.9,0.5c-0.4-0.1-0.6-0.5-0.5-0.9l0.8-3.4
				c0.1-0.4,0.5-0.6,0.9-0.5C263,92,263.2,92.4,263.1,92.8z"/>
		</g>
		<g id="XMLID_81_">
			<path id="XMLID_82_" class="st2" d="M162.5,202.9l1.4-2.6c0.2-0.3,0.5-0.4,0.8-0.2c0.3,0.2,0.4,0.5,0.2,0.8l-1.4,2.6
				c-0.2,0.3-0.5,0.4-0.8,0.2C162.4,203.6,162.3,203.2,162.5,202.9z"/>
		</g>
		<g id="XMLID_83_">
			<path id="XMLID_84_" class="st2" d="M119.5,261l-1.7,9.3c-0.2,1.1-1.2,1.8-2.3,1.6c-1.1-0.2-1.8-1.2-1.6-2.3l1.7-9.3
				c0.2-1.1,1.2-1.8,2.3-1.6C119,258.9,119.7,259.9,119.5,261z"/>
		</g>
		<g id="XMLID_85_">
			<path id="XMLID_86_" class="st3" d="M272.7,151.9l2.4-0.9c0.3-0.1,0.6,0,0.7,0.3c0.1,0.3,0,0.6-0.3,0.7l-2.4,0.9
				c-0.3,0.1-0.6,0-0.7-0.3C272.3,152.3,272.5,152,272.7,151.9z"/>
		</g>
		<g id="XMLID_87_">
			<path id="XMLID_88_" class="st3" d="M15.6,221L8.8,227c-0.8,0.7-2,0.6-2.7-0.2c-0.7-0.8-0.6-2,0.2-2.7l6.8-6.1
				c0.8-0.7,2-0.6,2.7,0.2C16.4,219.1,16.4,220.3,15.6,221z"/>
		</g>
		<g id="XMLID_89_">
			<path id="XMLID_90_" class="st3" d="M163.4,124.9l-0.8,7.5c-0.1,0.9-0.9,1.5-1.7,1.4c-0.9-0.1-1.5-0.9-1.4-1.7l0.8-7.5
				c0.1-0.9,0.9-1.5,1.7-1.4C162.9,123.2,163.5,124,163.4,124.9z"/>
		</g>
		<g id="XMLID_91_">
			<path id="XMLID_92_" class="st3" d="M6.4,48.2l3.2,2.5c0.4,0.3,0.4,0.8,0.2,1.2c-0.3,0.4-0.8,0.4-1.2,0.2l-3.2-2.5
				c-0.4-0.3-0.4-0.8-0.2-1.2C5.5,48,6,47.9,6.4,48.2z"/>
		</g>
		<g id="XMLID_93_">
			<path id="XMLID_94_" class="st3" d="M19.1,144.9l-2.5,8.5c-0.3,1-1.3,1.5-2.3,1.3c-1-0.3-1.5-1.3-1.3-2.3l2.5-8.5
				c0.3-1,1.3-1.5,2.3-1.3C18.8,143,19.3,144,19.1,144.9z"/>
		</g>
		<g id="XMLID_95_">
			<path id="XMLID_96_" class="st3" d="M55,234.8l3,1.1c0.3,0.1,0.5,0.5,0.4,0.8c-0.1,0.3-0.5,0.5-0.8,0.4l-3-1.1
				c-0.3-0.1-0.5-0.5-0.4-0.8C54.3,234.9,54.7,234.7,55,234.8z"/>
		</g>
		<g id="XMLID_97_">
			<path id="XMLID_98_" class="st3" d="M71.8,283.2l-4-1.2c-0.5-0.1-0.7-0.6-0.6-1.1c0.1-0.5,0.6-0.7,1.1-0.6l4,1.2
				c0.5,0.1,0.7,0.6,0.6,1.1C72.7,283.1,72.3,283.4,71.8,283.2z"/>
		</g>
		<g id="XMLID_99_">
			<path id="XMLID_100_" class="st3" d="M202.7,277.8l-1.8,2.1c-0.2,0.2-0.6,0.3-0.8,0.1c-0.2-0.2-0.3-0.6-0.1-0.8l1.8-2.1
				c0.2-0.2,0.6-0.3,0.8-0.1C202.9,277.2,202.9,277.5,202.7,277.8z"/>
		</g>
		<g id="XMLID_101_">
			<path id="XMLID_102_" class="st3" d="M7.3,78.5l1-2.7c0.1-0.3,0.5-0.5,0.8-0.3c0.3,0.1,0.5,0.5,0.3,0.8l-1,2.7
				c-0.1,0.3-0.5,0.5-0.8,0.3C7.3,79.2,7.1,78.8,7.3,78.5z"/>
		</g>
		<g id="XMLID_103_">
			<path id="XMLID_104_" class="st3" d="M23,55.6l-0.1,2.6c0,0.3-0.3,0.5-0.6,0.5c-0.3,0-0.5-0.3-0.5-0.6l0.1-2.6
				c0-0.3,0.3-0.5,0.6-0.5C22.8,55.1,23,55.4,23,55.6z"/>
		</g>
		<g id="XMLID_105_">
			<path id="XMLID_106_" class="st3" d="M230.9,9.7l-1.6,3.7c-0.2,0.4-0.7,0.6-1.1,0.4c-0.4-0.2-0.6-0.7-0.4-1.1l1.6-3.7
				c0.2-0.4,0.7-0.6,1.1-0.4C230.9,8.8,231.1,9.3,230.9,9.7z"/>
		</g>
		<g id="XMLID_107_">
			<path id="XMLID_108_" class="st3" d="M225.5,114.1l4.4-1.3c0.5-0.1,1,0.1,1.2,0.6c0.1,0.5-0.1,1-0.6,1.2l-4.4,1.3
				c-0.5,0.1-1-0.1-1.2-0.6C224.8,114.7,225,114.2,225.5,114.1z"/>
		</g>
		<g id="XMLID_109_">
			<path id="XMLID_110_" class="st3" d="M124.4,74.3l2.3,0.8c0.3,0.1,0.4,0.4,0.3,0.6c-0.1,0.3-0.4,0.4-0.6,0.3l-2.3-0.8
				c-0.3-0.1-0.4-0.4-0.3-0.6C123.8,74.4,124.1,74.2,124.4,74.3z"/>
		</g>
		<g id="XMLID_111_">
			<path id="XMLID_112_" class="st3" d="M5.2,166.8l3.2,3.4c0.4,0.4,0.4,1,0,1.4c-0.4,0.4-1,0.4-1.4,0l-3.2-3.4
				c-0.4-0.4-0.4-1,0-1.4C4.2,166.4,4.8,166.4,5.2,166.8z"/>
		</g>
		<g id="XMLID_113_">
			<path id="XMLID_114_" class="st3" d="M278.7,281l2.8-2.7c0.3-0.3,0.8-0.3,1.1,0c0.3,0.3,0.3,0.8,0,1.1l-2.8,2.7
				c-0.3,0.3-0.8,0.3-1.1,0C278.3,281.9,278.3,281.3,278.7,281z"/>
		</g>
		<g id="XMLID_115_">
			<path id="XMLID_116_" class="st3" d="M240.5,179.4l3-0.1c0.3,0,0.6,0.2,0.6,0.6c0,0.3-0.2,0.6-0.6,0.6l-3,0.1
				c-0.3,0-0.6-0.2-0.6-0.6C239.9,179.7,240.1,179.4,240.5,179.4z"/>
		</g>
		<g id="XMLID_117_">
			<path id="XMLID_118_" class="st3" d="M206.9,211.7l3-1.4c0.3-0.2,0.8,0,0.9,0.3c0.2,0.3,0,0.8-0.3,0.9l-3,1.4
				c-0.3,0.2-0.8,0-0.9-0.3C206.4,212.3,206.5,211.9,206.9,211.7z"/>
		</g>
		<g id="XMLID_119_">
			<path id="XMLID_120_" class="st3" d="M30.7,97.7l6.5,2.3c0.7,0.3,1.1,1.1,0.9,1.8c-0.3,0.7-1.1,1.1-1.8,0.9l-6.5-2.3
				c-0.7-0.3-1.1-1.1-0.9-1.8C29.2,97.8,30,97.4,30.7,97.7z"/>
		</g>
		<g id="XMLID_121_">
			<path id="XMLID_122_" class="st3" d="M58.8,99.8l0.4,3.6c0,0.4-0.3,0.8-0.7,0.8c-0.4,0-0.8-0.3-0.8-0.7l-0.4-3.6
				c0-0.4,0.3-0.8,0.7-0.8S58.8,99.4,58.8,99.8z"/>
		</g>
		<g id="XMLID_123_">
			<path id="XMLID_124_" class="st3" d="M183.3,217.5l-2.4-1.1c-0.3-0.1-0.4-0.5-0.3-0.7c0.1-0.3,0.5-0.4,0.7-0.3l2.4,1.1
				c0.3,0.1,0.4,0.5,0.3,0.7C183.9,217.5,183.6,217.6,183.3,217.5z"/>
		</g>
		<g id="XMLID_125_">
			<path id="XMLID_126_" class="st3" d="M87.7,58.7l-6.5,1.3c-0.7,0.2-1.5-0.3-1.6-1.1c-0.2-0.7,0.3-1.5,1.1-1.6l6.5-1.3
				c0.7-0.2,1.5,0.3,1.6,1.1C88.9,57.9,88.4,58.6,87.7,58.7z"/>
		</g>
		<g id="XMLID_127_">
			<path id="XMLID_128_" class="st3" d="M9.6,103.3l4.6,7.3c0.5,0.8,0.3,1.9-0.6,2.4c-0.8,0.5-1.9,0.3-2.4-0.6l-4.6-7.3
				c-0.5-0.8-0.3-1.9,0.6-2.4C8,102.3,9.1,102.5,9.6,103.3z"/>
		</g>
		<g id="XMLID_129_">
			<path id="XMLID_130_" class="st3" d="M23.1,273l-2.3,8.9c-0.3,1-1.3,1.6-2.3,1.4c-1-0.3-1.6-1.3-1.4-2.3l2.3-8.9
				c0.3-1,1.3-1.6,2.3-1.4C22.7,270.9,23.3,271.9,23.1,273z"/>
		</g>
		<g id="XMLID_131_">
			<path id="XMLID_132_" class="st3" d="M97.1,130.8l-4.7,2c-0.5,0.2-1.2,0-1.4-0.6c-0.2-0.5,0-1.2,0.6-1.4l4.7-2
				c0.5-0.2,1.2,0,1.4,0.6C97.9,129.9,97.6,130.5,97.1,130.8z"/>
		</g>
		<g id="XMLID_133_">
			<path id="XMLID_134_" class="st3" d="M18.5,198.4l2.1,3.4c0.2,0.4,0.1,0.9-0.3,1.1c-0.4,0.2-0.9,0.1-1.1-0.3l-2.1-3.4
				c-0.2-0.4-0.1-0.9,0.3-1.1C17.7,197.8,18.2,198,18.5,198.4z"/>
		</g>
		<g id="XMLID_135_">
			<path id="XMLID_136_" class="st3" d="M87.5,217.9l3.5-3.7c0.4-0.4,1.1-0.4,1.5,0c0.4,0.4,0.4,1.1,0,1.5l-3.5,3.7
				c-0.4,0.4-1.1,0.4-1.5,0C87.1,219,87.1,218.3,87.5,217.9z"/>
		</g>
		<g id="XMLID_137_">
			<path id="XMLID_138_" class="st3" d="M72.6,128.8l-1.8-3.1c-0.2-0.4-0.1-0.8,0.3-1c0.4-0.2,0.8-0.1,1,0.3l1.8,3.1
				c0.2,0.4,0.1,0.8-0.3,1C73.2,129.3,72.8,129.1,72.6,128.8z"/>
		</g>
		<g id="XMLID_139_">
			<path id="XMLID_140_" class="st3" d="M66.2,51.4l-7.8-1.3c-0.9-0.2-1.5-1-1.3-1.9c0.2-0.9,1-1.5,1.9-1.3l7.8,1.3
				c0.9,0.2,1.5,1,1.3,1.9C67.9,51,67.1,51.6,66.2,51.4z"/>
		</g>
		<g id="XMLID_141_">
			<path id="XMLID_142_" class="st3" d="M272.1,68l-2-1.6c-0.2-0.2-0.3-0.5-0.1-0.7c0.2-0.2,0.5-0.3,0.7-0.1l2,1.6
				c0.2,0.2,0.3,0.5,0.1,0.7C272.7,68.1,272.4,68.1,272.1,68z"/>
		</g>
		<g id="XMLID_143_">
			<path id="XMLID_144_" class="st3" d="M6,266.8l1,3.3c0.1,0.4-0.1,0.8-0.5,0.9c-0.4,0.1-0.8-0.1-0.9-0.5l-1-3.3
				c-0.1-0.4,0.1-0.8,0.5-0.9C5.5,266.2,5.9,266.4,6,266.8z"/>
		</g>
		<g id="XMLID_145_">
			<path id="XMLID_146_" class="st3" d="M228.2,157.7l-1.4-2.8c-0.2-0.3,0-0.7,0.3-0.9c0.3-0.2,0.7,0,0.9,0.3l1.4,2.8
				c0.2,0.3,0,0.7-0.3,0.9C228.7,158.1,228.3,158,228.2,157.7z"/>
		</g>
		<g id="XMLID_147_">
			<path id="XMLID_148_" class="st3" d="M77.5,78.6l-5.7-5.7c-0.6-0.7-0.6-1.7,0-2.4c0.7-0.6,1.7-0.6,2.4,0l5.7,5.7
				c0.6,0.7,0.6,1.7,0,2.4C79.2,79.3,78.2,79.3,77.5,78.6z"/>
		</g>
		<g id="XMLID_149_">
			<path id="XMLID_150_" class="st3" d="M190.5,48.6l1.9,6.2c0.2,0.7-0.2,1.5-0.9,1.7c-0.7,0.2-1.5-0.2-1.7-0.9l-1.9-6.2
				c-0.2-0.7,0.2-1.5,0.9-1.7C189.5,47.5,190.3,47.9,190.5,48.6z"/>
		</g>
		<g id="XMLID_151_">
			<path id="XMLID_152_" class="st3" d="M19.1,173.2l3.3-1.2c0.4-0.1,0.8,0,0.9,0.4c0.1,0.4-0.1,0.8-0.4,0.9l-3.3,1.2
				c-0.4,0.1-0.8,0-0.9-0.4C18.6,173.8,18.8,173.3,19.1,173.2z"/>
		</g>
		<g id="XMLID_153_">
			<path id="XMLID_154_" class="st3" d="M244.9,95.2l-5.9,6.1c-0.7,0.7-1.8,0.7-2.5,0c-0.7-0.7-0.7-1.8,0-2.5l5.9-6.1
				c0.7-0.7,1.8-0.7,2.5,0C245.5,93.4,245.5,94.5,244.9,95.2z"/>
		</g>
		<g id="XMLID_155_">
			<path id="XMLID_156_" class="st3" d="M121.3,168l3.9-2.7c0.4-0.3,1.1-0.2,1.4,0.3c0.3,0.4,0.2,1.1-0.3,1.4l-3.9,2.7
				c-0.4,0.3-1.1,0.2-1.4-0.3C120.7,168.9,120.8,168.3,121.3,168z"/>
		</g>
		<g id="XMLID_157_">
			<path id="XMLID_158_" class="st3" d="M254.5,201l1.3-5.8c0.2-0.7,0.8-1.1,1.5-0.9c0.7,0.2,1.1,0.8,0.9,1.5l-1.3,5.8
				c-0.2,0.7-0.8,1.1-1.5,0.9C254.8,202.4,254.4,201.7,254.5,201z"/>
		</g>
		<g id="XMLID_159_">
			<path id="XMLID_160_" class="st3" d="M242.8,215.5l-1.6,8.1c-0.2,0.9-1.1,1.5-2,1.3c-0.9-0.2-1.5-1.1-1.3-2l1.6-8.1
				c0.2-0.9,1.1-1.5,2-1.3C242.4,213.7,243,214.6,242.8,215.5z"/>
		</g>
		<g id="XMLID_161_">
			<path id="XMLID_162_" class="st3" d="M80.4,36.1l-2-2c-0.2-0.2-0.2-0.6,0-0.8c0.2-0.2,0.6-0.2,0.8,0l2,2c0.2,0.2,0.2,0.6,0,0.8
				C80.9,36.3,80.6,36.3,80.4,36.1z"/>
		</g>
		<g id="XMLID_163_">
			<path id="XMLID_164_" class="st3" d="M72.8,167.5l7-0.3c0.8,0,1.5,0.6,1.5,1.4c0,0.8-0.6,1.5-1.4,1.5l-7,0.3
				c-0.8,0-1.5-0.6-1.5-1.4C71.4,168.2,72,167.5,72.8,167.5z"/>
		</g>
		<g id="XMLID_165_">
			<path id="XMLID_166_" class="st4" d="M12.1,245.8l0.5,6c0.1,0.7-0.4,1.3-1.1,1.3c-0.7,0.1-1.3-0.4-1.3-1.1l-0.5-6
				c-0.1-0.7,0.4-1.3,1.1-1.3C11.5,244.6,12.1,245.1,12.1,245.8z"/>
		</g>
		<g id="XMLID_167_">
			<path id="XMLID_168_" class="st4" d="M235.7,260.3l-0.1-3.7c0-0.4,0.3-0.8,0.7-0.8c0.4,0,0.8,0.3,0.8,0.7l0.1,3.7
				c0,0.4-0.3,0.8-0.7,0.8C236.1,261.1,235.7,260.7,235.7,260.3z"/>
		</g>
		<g id="XMLID_169_">
			<path id="XMLID_170_" class="st4" d="M25.7,6.2l-3.7,1.6c-0.4,0.2-0.9,0-1.1-0.4c-0.2-0.4,0-0.9,0.4-1.1L25,4.7
				c0.4-0.2,0.9,0,1.1,0.4C26.3,5.6,26.1,6,25.7,6.2z"/>
		</g>
		<g id="XMLID_171_">
			<path id="XMLID_172_" class="st4" d="M278.6,92.8l2.6,0.4c0.3,0.1,0.5,0.3,0.5,0.6c-0.1,0.3-0.3,0.5-0.6,0.5l-2.6-0.4
				c-0.3-0.1-0.5-0.3-0.5-0.6C278,93,278.3,92.8,278.6,92.8z"/>
		</g>
		<g id="XMLID_173_">
			<path id="XMLID_174_" class="st4" d="M245,157.3l6.5-3c0.7-0.3,1.6,0,2,0.7c0.3,0.7,0,1.6-0.7,2l-6.5,3c-0.7,0.3-1.6,0-2-0.7
				C244,158.6,244.3,157.7,245,157.3z"/>
		</g>
		<g id="XMLID_175_">
			<path id="XMLID_176_" class="st4" d="M83.8,189.3l-4.4,0.2c-0.5,0-0.9-0.4-0.9-0.9c0-0.5,0.4-0.9,0.9-0.9l4.4-0.2
				c0.5,0,0.9,0.4,0.9,0.9C84.7,188.9,84.3,189.3,83.8,189.3z"/>
		</g>
		<g id="XMLID_177_">
			<path id="XMLID_178_" class="st4" d="M277.4,117.3L274,119c-0.4,0.2-0.8,0.1-1-0.3c-0.2-0.4-0.1-0.9,0.3-1l3.3-1.7
				c0.4-0.2,0.9-0.1,1,0.3C277.9,116.6,277.8,117.1,277.4,117.3z"/>
		</g>
		<g id="XMLID_179_">
			<path id="XMLID_180_" class="st4" d="M202.2,234.6l-2.2-1.6c-0.3-0.2-0.3-0.5-0.1-0.8c0.2-0.3,0.5-0.3,0.8-0.1l2.2,1.6
				c0.3,0.2,0.3,0.5,0.1,0.8C202.8,234.7,202.5,234.8,202.2,234.6z"/>
		</g>
		<g id="XMLID_181_">
			<path id="XMLID_182_" class="st4" d="M218.9,187.4l0.1,7.1c0,0.8-0.6,1.5-1.4,1.5c-0.8,0-1.5-0.6-1.5-1.4l-0.1-7.1
				c0-0.8,0.6-1.5,1.4-1.5C218.2,186,218.9,186.6,218.9,187.4z"/>
		</g>
		<g id="XMLID_183_">
			<path id="XMLID_184_" class="st4" d="M143.1,9.7l-0.6-2.5c-0.1-0.3,0.1-0.6,0.4-0.6c0.3-0.1,0.6,0.1,0.6,0.4l0.6,2.5
				c0.1,0.3-0.1,0.6-0.4,0.6C143.5,10.1,143.2,10,143.1,9.7z"/>
		</g>
		<g id="XMLID_185_">
			<path id="XMLID_186_" class="st4" d="M205.6,10.3l-4.6,7.2c-0.5,0.8-1.6,1.1-2.4,0.5c-0.8-0.5-1.1-1.6-0.5-2.4l4.6-7.2
				c0.5-0.8,1.6-1.1,2.4-0.5C205.9,8.4,206.1,9.5,205.6,10.3z"/>
		</g>
		<g id="XMLID_187_">
			<path id="XMLID_188_" class="st4" d="M186.8,136.8l2.3-1.2c0.3-0.1,0.6,0,0.7,0.2c0.1,0.3,0,0.6-0.2,0.7l-2.3,1.2
				c-0.3,0.1-0.6,0-0.7-0.2C186.4,137.3,186.5,136.9,186.8,136.8z"/>
		</g>
		<g id="XMLID_189_">
			<path id="XMLID_190_" class="st4" d="M141.6,69.6l6.1-0.8c0.7-0.1,1.3,0.4,1.4,1.1c0.1,0.7-0.4,1.3-1.1,1.4l-6.1,0.8
				c-0.7,0.1-1.3-0.4-1.4-1.1C140.5,70.3,141,69.7,141.6,69.6z"/>
		</g>
		<g id="XMLID_191_">
			<path id="XMLID_192_" class="st4" d="M178,121.2l2.4-3.5c0.3-0.4,0.8-0.5,1.2-0.2c0.4,0.3,0.5,0.8,0.2,1.2l-2.4,3.5
				c-0.3,0.4-0.8,0.5-1.2,0.2C177.8,122.1,177.7,121.6,178,121.2z"/>
		</g>
		<g id="XMLID_193_">
			<path id="XMLID_194_" class="st4" d="M140.9,119l3.3-5.2c0.4-0.6,1.2-0.8,1.8-0.4c0.6,0.4,0.8,1.2,0.4,1.8l-3.3,5.2
				c-0.4,0.6-1.2,0.8-1.8,0.4C140.7,120.3,140.5,119.6,140.9,119z"/>
		</g>
		<g id="XMLID_195_">
			<path id="XMLID_196_" class="st4" d="M88.2,271.2l1.3,2.5c0.1,0.3,0,0.6-0.3,0.8c-0.3,0.1-0.6,0-0.8-0.3l-1.3-2.5
				c-0.1-0.3,0-0.6,0.3-0.8C87.7,270.8,88.1,270.9,88.2,271.2z"/>
		</g>
		<g id="XMLID_197_">
			<path id="XMLID_198_" class="st4" d="M216,168.1l-2.1,4.4c-0.2,0.5-0.8,0.7-1.3,0.5c-0.5-0.2-0.7-0.8-0.5-1.3l2.1-4.4
				c0.2-0.5,0.8-0.7,1.3-0.5C216.1,167.1,216.3,167.7,216,168.1z"/>
		</g>
		<g id="XMLID_199_">
			<path id="XMLID_200_" class="st4" d="M154.4,268.9l-7.1,5.8c-0.8,0.7-2,0.5-2.7-0.3c-0.7-0.8-0.5-2,0.3-2.7l7.1-5.8
				c0.8-0.7,2-0.5,2.7,0.3C155.3,267,155.2,268.2,154.4,268.9z"/>
		</g>
		<g id="XMLID_201_">
			<path id="XMLID_202_" class="st4" d="M30.5,122.5l3.7,0.1c0.4,0,0.8,0.4,0.7,0.8c0,0.4-0.4,0.8-0.8,0.7l-3.7-0.1
				c-0.4,0-0.8-0.4-0.7-0.8C29.7,122.8,30.1,122.5,30.5,122.5z"/>
		</g>
		<g id="XMLID_203_">
			<path id="XMLID_204_" class="st4" d="M259.4,131l0.2,7.5c0,0.9-0.6,1.6-1.5,1.6c-0.9,0-1.6-0.6-1.6-1.5l-0.2-7.5
				c0-0.9,0.6-1.6,1.5-1.6C258.7,129.4,259.4,130.1,259.4,131z"/>
		</g>
		<g id="XMLID_205_">
			<path id="XMLID_206_" class="st4" d="M41.4,158.2l-9.3,1.6c-1.1,0.2-2.1-0.5-2.3-1.6c-0.2-1.1,0.5-2.1,1.6-2.3l9.3-1.6
				c1.1-0.2,2.1,0.5,2.3,1.6C43.2,157,42.5,158,41.4,158.2z"/>
		</g>
		<g id="XMLID_207_">
			<path id="XMLID_208_" class="st4" d="M99.8,71.5l1.1-2.2c0.1-0.3,0.4-0.4,0.7-0.2c0.3,0.1,0.4,0.4,0.2,0.7l-1.1,2.2
				c-0.1,0.3-0.4,0.4-0.7,0.2C99.7,72,99.6,71.7,99.8,71.5z"/>
		</g>
		<g id="XMLID_209_">
			<path id="XMLID_210_" class="st4" d="M46.3,213l-2.8,2.9c-0.3,0.3-0.8,0.3-1.2,0c-0.3-0.3-0.3-0.8,0-1.2l2.8-2.9
				c0.3-0.3,0.8-0.3,1.2,0C46.6,212.1,46.6,212.6,46.3,213z"/>
		</g>
		<g id="XMLID_211_">
			<path id="XMLID_212_" class="st4" d="M7.8,5.2l-1,5.3c-0.1,0.6-0.7,1-1.3,0.9c-0.6-0.1-1-0.7-0.9-1.3l1-5.3
				c0.1-0.6,0.7-1,1.3-0.9S7.9,4.6,7.8,5.2z"/>
		</g>
		<g id="XMLID_213_">
			<path id="XMLID_214_" class="st4" d="M31.7,256.9l-1.9-2.5c-0.2-0.3-0.2-0.7,0.1-0.9c0.3-0.2,0.7-0.2,0.9,0.1l1.9,2.5
				c0.2,0.3,0.2,0.7-0.1,0.9C32.3,257.3,31.9,257.2,31.7,256.9z"/>
		</g>
		<g id="XMLID_215_">
			<path id="XMLID_216_" class="st4" d="M212,136.5l-5.7,4.3c-0.6,0.5-1.6,0.4-2.1-0.3c-0.5-0.6-0.4-1.6,0.3-2.1l5.7-4.3
				c0.6-0.5,1.6-0.4,2.1,0.3C212.8,135.1,212.7,136,212,136.5z"/>
		</g>
		<g id="XMLID_217_">
			<path id="XMLID_218_" class="st4" d="M111.4,280.1l-5.7,2.9c-0.7,0.3-1.4,0.1-1.8-0.6c-0.3-0.7-0.1-1.4,0.6-1.8l5.7-2.9
				c0.7-0.3,1.4-0.1,1.8,0.6C112.3,279,112,279.8,111.4,280.1z"/>
		</g>
		<g id="XMLID_219_">
			<path id="XMLID_220_" class="st4" d="M93.9,254.4l-2.6-0.3c-0.3,0-0.5-0.3-0.5-0.6c0-0.3,0.3-0.5,0.6-0.5l2.6,0.3
				c0.3,0,0.5,0.3,0.5,0.6C94.5,254.2,94.2,254.4,93.9,254.4z"/>
		</g>
		<g id="XMLID_221_">
			<path id="XMLID_222_" class="st4" d="M271.6,214.7l2.9-1.5c0.3-0.2,0.7,0,0.9,0.3c0.2,0.3,0,0.7-0.3,0.9l-2.9,1.5
				c-0.3,0.2-0.7,0-0.9-0.3C271.1,215.3,271.2,214.9,271.6,214.7z"/>
		</g>
		<g id="XMLID_223_">
			<path id="XMLID_224_" class="st4" d="M173.8,241.4l-1,2.3c-0.1,0.3-0.4,0.4-0.7,0.3c-0.3-0.1-0.4-0.4-0.3-0.7l1-2.3
				c0.1-0.3,0.4-0.4,0.7-0.3C173.8,240.8,173.9,241.2,173.8,241.4z"/>
		</g>
		<g id="XMLID_225_">
			<path id="XMLID_226_" class="st4" d="M198.7,255l4.4,0c0.5,0,0.9,0.4,0.9,0.9c0,0.5-0.4,0.9-0.9,0.9l-4.4,0
				c-0.5,0-0.9-0.4-0.9-0.9C197.8,255.4,198.3,255,198.7,255z"/>
		</g>
		<g id="XMLID_227_">
			<path id="XMLID_228_" class="st4" d="M281.6,171.3l-0.1-2.7c0-0.3,0.2-0.6,0.5-0.6c0.3,0,0.6,0.2,0.6,0.5l0.1,2.7
				c0,0.3-0.2,0.6-0.5,0.6C281.9,171.9,281.6,171.7,281.6,171.3z"/>
		</g>
		<g id="XMLID_229_">
			<path id="XMLID_230_" class="st4" d="M32.1,236l-4.1-0.7c-0.5-0.1-0.8-0.5-0.7-1c0.1-0.5,0.5-0.8,1-0.7l4.1,0.7
				c0.5,0.1,0.8,0.5,0.7,1C33,235.8,32.6,236.1,32.1,236z"/>
		</g>
		<g id="XMLID_231_">
			<path id="XMLID_232_" class="st4" d="M283.5,133.4l-4,4.8c-0.5,0.5-1.3,0.6-1.8,0.2c-0.5-0.5-0.6-1.3-0.2-1.8l4-4.8
				c0.5-0.5,1.3-0.6,1.8-0.2C283.9,132,284,132.8,283.5,133.4z"/>
		</g>
		<g id="XMLID_233_">
			<path id="XMLID_234_" class="st4" d="M259.6,258.1l-4.3,0.9c-0.5,0.1-1-0.2-1.1-0.7c-0.1-0.5,0.2-1,0.7-1.1l4.3-0.9
				c0.5-0.1,1,0.2,1.1,0.7C260.4,257.5,260.1,258,259.6,258.1z"/>
		</g>
		<g id="XMLID_235_">
			<path id="XMLID_236_" class="st4" d="M155.1,217.8l-8.2,1.8c-0.9,0.2-1.9-0.4-2.1-1.3c-0.2-0.9,0.4-1.9,1.3-2.1l8.2-1.8
				c0.9-0.2,1.9,0.4,2.1,1.3C156.7,216.7,156.1,217.6,155.1,217.8z"/>
		</g>
		<g id="XMLID_237_">
			<path id="XMLID_238_" class="st4" d="M186.7,171.1l-2.7,0.8c-0.3,0.1-0.6-0.1-0.7-0.4c-0.1-0.3,0.1-0.6,0.4-0.7l2.7-0.8
				c0.3-0.1,0.6,0.1,0.7,0.4C187.2,170.7,187,171,186.7,171.1z"/>
		</g>
		<g id="XMLID_239_">
			<path id="XMLID_240_" class="st4" d="M155.1,31.3l1,3.4c0.1,0.4-0.1,0.8-0.5,0.9c-0.4,0.1-0.8-0.1-0.9-0.5l-1-3.4
				c-0.1-0.4,0.1-0.8,0.5-0.9C154.6,30.7,155,31,155.1,31.3z"/>
		</g>
		<g id="XMLID_241_">
			<path id="XMLID_242_" class="st4" d="M154.4,151.6l-6.7,2.4c-0.8,0.3-1.6-0.1-1.9-0.9c-0.3-0.8,0.1-1.6,0.9-1.9l6.7-2.4
				c0.8-0.3,1.6,0.1,1.9,0.9C155.6,150.5,155.2,151.3,154.4,151.6z"/>
		</g>
		<g id="XMLID_243_">
			<path id="XMLID_244_" class="st4" d="M114.1,12.3l5.5-6.3c0.6-0.7,1.7-0.8,2.4-0.2c0.7,0.6,0.8,1.7,0.2,2.4l-5.5,6.3
				c-0.6,0.7-1.7,0.8-2.4,0.2C113.6,14.1,113.5,13.1,114.1,12.3z"/>
		</g>
		<g id="XMLID_245_">
			<path id="XMLID_246_" class="st5" d="M135.8,280.1l-2.6-0.1c-0.3,0-0.5-0.3-0.5-0.6c0-0.3,0.3-0.5,0.6-0.5l2.6,0.1
				c0.3,0,0.5,0.3,0.5,0.6C136.4,279.9,136.1,280.1,135.8,280.1z"/>
		</g>
		<g id="XMLID_247_">
			<path id="XMLID_248_" class="st5" d="M119.9,245.5l6.8-1.6c0.8-0.2,1.6,0.3,1.7,1.1c0.2,0.8-0.3,1.6-1.1,1.7l-6.8,1.6
				c-0.8,0.2-1.6-0.3-1.7-1.1C118.7,246.5,119.2,245.7,119.9,245.5z"/>
		</g>
		<g id="XMLID_249_">
			<path id="XMLID_250_" class="st5" d="M10.9,132.1l1.7-2.3c0.2-0.3,0.6-0.3,0.8-0.1c0.3,0.2,0.3,0.6,0.1,0.8l-1.7,2.3
				c-0.2,0.3-0.6,0.3-0.8,0.1C10.8,132.7,10.7,132.4,10.9,132.1z"/>
		</g>
		<g id="XMLID_251_">
			<path id="XMLID_252_" class="st5" d="M87.9,11.7l-1.3-2.4c-0.2-0.3,0-0.6,0.2-0.8c0.3-0.2,0.6,0,0.8,0.2l1.3,2.4
				c0.2,0.3,0,0.6-0.2,0.8C88.4,12.1,88.1,12,87.9,11.7z"/>
		</g>
		<g id="XMLID_253_">
			<path id="XMLID_254_" class="st5" d="M123.1,48.2l-0.8,9.6c-0.1,1.1-1,1.9-2.1,1.8c-1.1-0.1-1.9-1-1.8-2.1l0.8-9.6
				c0.1-1.1,1-1.9,2.1-1.8C122.4,46.1,123.2,47.1,123.1,48.2z"/>
		</g>
		<g id="XMLID_255_">
			<path id="XMLID_256_" class="st5" d="M167.8,13.9l-7.1,5.6c-0.8,0.6-2,0.5-2.6-0.3c-0.6-0.8-0.5-2,0.3-2.6l7.1-5.6
				c0.8-0.6,2-0.5,2.6,0.3C168.8,12.1,168.6,13.3,167.8,13.9z"/>
		</g>
		<g id="XMLID_257_">
			<path id="XMLID_258_" class="st5" d="M26.8,77.3l1.4,2.8c0.2,0.3,0,0.7-0.3,0.9c-0.3,0.2-0.7,0-0.9-0.3l-1.4-2.8
				c-0.2-0.3,0-0.7,0.3-0.9C26.2,76.8,26.6,77,26.8,77.3z"/>
		</g>
		<g id="XMLID_259_">
			<path id="XMLID_260_" class="st5" d="M133.4,191.9l-2.7,6.4c-0.3,0.7-1.2,1.1-1.9,0.8c-0.7-0.3-1.1-1.2-0.8-1.9l2.7-6.4
				c0.3-0.7,1.2-1.1,1.9-0.8C133.4,190.4,133.7,191.2,133.4,191.9z"/>
		</g>
		<g id="XMLID_261_">
			<path id="XMLID_262_" class="st5" d="M101,47.1l-0.3,2.6c0,0.3-0.3,0.5-0.6,0.5c-0.3,0-0.5-0.3-0.5-0.6l0.3-2.6
				c0-0.3,0.3-0.5,0.6-0.5C100.8,46.6,101,46.8,101,47.1z"/>
		</g>
		<g id="XMLID_263_">
			<path id="XMLID_264_" class="st5" d="M149.5,174.3l5.1,6.5c0.6,0.7,0.4,1.8-0.3,2.4c-0.7,0.6-1.8,0.4-2.4-0.3l-5.1-6.5
				c-0.6-0.7-0.4-1.8,0.3-2.4C147.9,173.4,148.9,173.6,149.5,174.3z"/>
		</g>
		<g id="XMLID_265_">
			<path id="XMLID_266_" class="st5" d="M279.9,240.5l-5.8-1.4c-0.7-0.2-1.1-0.8-0.9-1.5s0.8-1.1,1.5-0.9l5.8,1.4
				c0.7,0.2,1.1,0.8,0.9,1.5C281.2,240.3,280.5,240.7,279.9,240.5z"/>
		</g>
		<g id="XMLID_267_">
			<path id="XMLID_268_" class="st5" d="M65.9,154.8l-5.2-4c-0.6-0.5-0.7-1.3-0.3-1.9c0.5-0.6,1.3-0.7,1.9-0.3l5.2,4
				c0.6,0.5,0.7,1.3,0.3,1.9C67.3,155.2,66.5,155.3,65.9,154.8z"/>
		</g>
		<g id="XMLID_269_">
			<path id="XMLID_270_" class="st5" d="M115.5,147.4l-0.9-2.5c-0.1-0.3,0.1-0.6,0.3-0.7c0.3-0.1,0.6,0.1,0.7,0.3l0.9,2.5
				c0.1,0.3-0.1,0.6-0.3,0.7C115.9,147.9,115.6,147.7,115.5,147.4z"/>
		</g>
		<g id="XMLID_271_">
			<path id="XMLID_272_" class="st5" d="M199.4,110.8l1.5,2c0.2,0.2,0.1,0.6-0.1,0.7c-0.2,0.2-0.6,0.1-0.7-0.1l-1.5-2
				c-0.2-0.2-0.1-0.6,0.1-0.7C198.9,110.5,199.3,110.6,199.4,110.8z"/>
		</g>
		<g id="XMLID_273_">
			<path id="XMLID_274_" class="st5" d="M55.4,17.9l5.1-7.7c0.6-0.9,1.8-1.1,2.6-0.5c0.9,0.6,1.1,1.8,0.5,2.6L58.6,20
				c-0.6,0.9-1.8,1.1-2.6,0.5C55.1,20,54.8,18.8,55.4,17.9z"/>
		</g>
		<g id="XMLID_275_">
			<path id="XMLID_276_" class="st5" d="M161.2,85.1l-2.9-0.6c-0.3-0.1-0.5-0.4-0.5-0.7c0.1-0.3,0.4-0.5,0.7-0.5l2.9,0.6
				c0.3,0.1,0.5,0.4,0.5,0.7C161.9,84.9,161.6,85.2,161.2,85.1z"/>
		</g>
		<g id="XMLID_277_">
			<path id="XMLID_278_" class="st5" d="M67.4,201.5l2,6.7c0.2,0.8-0.2,1.6-1,1.8c-0.8,0.2-1.6-0.2-1.8-1l-2-6.7
				c-0.2-0.8,0.2-1.6,1-1.8C66.3,200.3,67.1,200.8,67.4,201.5z"/>
		</g>
		<g id="XMLID_279_">
			<path id="XMLID_280_" class="st5" d="M257.8,276.3l7.4-2.2c0.8-0.3,1.7,0.2,2,1.1c0.3,0.8-0.2,1.7-1.1,2l-7.4,2.2
				c-0.8,0.3-1.7-0.2-2-1.1C256.5,277.5,257,276.6,257.8,276.3z"/>
		</g>
		<g id="XMLID_281_">
			<path id="XMLID_282_" class="st5" d="M225.2,92.4l-7.6-4.9c-0.9-0.6-1.1-1.7-0.6-2.6c0.6-0.9,1.7-1.1,2.6-0.6l7.6,4.9
				c0.9,0.6,1.1,1.7,0.6,2.6C227.2,92.7,226.1,92.9,225.2,92.4z"/>
		</g>
		<g id="XMLID_283_">
			<path id="XMLID_284_" class="st5" d="M198.7,158.7l-5.3-2.9c-0.6-0.3-0.8-1.1-0.5-1.7c0.3-0.6,1.1-0.8,1.7-0.5l5.3,2.9
				c0.6,0.3,0.8,1.1,0.5,1.7C200.1,158.8,199.3,159,198.7,158.7z"/>
		</g>
		<g id="XMLID_285_">
			<path id="XMLID_286_" class="st5" d="M115.3,117.6l0.8,3.1c0.1,0.3-0.1,0.7-0.5,0.8c-0.3,0.1-0.7-0.1-0.8-0.5l-0.8-3.1
				c-0.1-0.3,0.1-0.7,0.5-0.8C114.8,117,115.2,117.2,115.3,117.6z"/>
		</g>
		<g id="XMLID_287_">
			<path id="XMLID_288_" class="st5" d="M105.9,232.3l2.6,7c0.3,0.8-0.1,1.7-0.9,2c-0.8,0.3-1.7-0.1-2-0.9l-2.6-7
				c-0.3-0.8,0.1-1.7,0.9-2C104.7,231.1,105.6,231.6,105.9,232.3z"/>
		</g>
		<g id="XMLID_289_">
			<path id="XMLID_290_" class="st5" d="M115.1,212.4l3.4,1.9c0.4,0.2,0.5,0.7,0.3,1.1c-0.2,0.4-0.7,0.5-1.1,0.3l-3.4-1.9
				c-0.4-0.2-0.5-0.7-0.3-1.1C114.2,212.4,114.7,212.2,115.1,212.4z"/>
		</g>
		<g id="XMLID_291_">
			<path id="XMLID_292_" class="st5" d="M81.1,95L79,97.4c-0.2,0.3-0.7,0.3-0.9,0.1c-0.3-0.2-0.3-0.7-0.1-0.9l2.1-2.4
				c0.2-0.3,0.7-0.3,0.9-0.1C81.3,94.3,81.3,94.7,81.1,95z"/>
		</g>
		<g id="XMLID_293_">
			<path id="XMLID_294_" class="st5" d="M212.9,67.2l3.4-2.2c0.4-0.3,0.9-0.1,1.2,0.3s0.1,0.9-0.3,1.2l-3.4,2.2
				c-0.4,0.3-0.9,0.1-1.2-0.3C212.4,68,212.6,67.5,212.9,67.2z"/>
		</g>
		<g id="XMLID_295_">
			<path id="XMLID_296_" class="st5" d="M233.5,203.5l-1.3-6.2c-0.2-0.7,0.3-1.4,1-1.6c0.7-0.2,1.4,0.3,1.6,1l1.3,6.2
				c0.2,0.7-0.3,1.4-1,1.6C234.3,204.7,233.6,204.2,233.5,203.5z"/>
		</g>
		<g id="XMLID_297_">
			<path id="XMLID_298_" class="st5" d="M251.2,236.2l6.5-2.3c0.7-0.3,1.6,0.1,1.8,0.9c0.3,0.7-0.1,1.6-0.9,1.8l-6.5,2.3
				c-0.7,0.3-1.6-0.1-1.8-0.9C250.1,237.2,250.5,236.4,251.2,236.2z"/>
		</g>
		<g id="XMLID_299_">
			<path id="XMLID_300_" class="st5" d="M267.9,173.2l-4.9-0.8c-0.6-0.1-0.9-0.6-0.8-1.2c0.1-0.6,0.6-0.9,1.2-0.8l4.9,0.8
				c0.6,0.1,0.9,0.6,0.8,1.2C269,172.9,268.4,173.2,267.9,173.2z"/>
		</g>
		<g id="XMLID_301_">
			<path id="XMLID_302_" class="st5" d="M175.4,34.4l3.3-5.2c0.4-0.6,1.2-0.8,1.8-0.4c0.6,0.4,0.8,1.2,0.4,1.8l-3.3,5.2
				c-0.4,0.6-1.2,0.8-1.8,0.4C175.2,35.7,175,35,175.4,34.4z"/>
		</g>
		<g id="XMLID_303_">
			<path id="XMLID_304_" class="st5" d="M147.9,54.6l1.3-6.3c0.1-0.7,0.8-1.2,1.6-1c0.7,0.1,1.2,0.8,1,1.6l-1.3,6.3
				c-0.1,0.7-0.8,1.2-1.6,1C148.3,56.1,147.8,55.4,147.9,54.6z"/>
		</g>
		<g id="XMLID_305_">
			<path id="XMLID_306_" class="st5" d="M278.3,258.7l0.6,2.5c0.1,0.3-0.1,0.6-0.4,0.6c-0.3,0.1-0.6-0.1-0.6-0.4l-0.6-2.5
				c-0.1-0.3,0.1-0.6,0.4-0.6C278,258.3,278.2,258.5,278.3,258.7z"/>
		</g>
		<g id="XMLID_307_">
			<path id="XMLID_308_" class="st5" d="M248.1,74.5l-8.6,1.2c-1,0.1-1.9-0.5-2-1.5c-0.1-1,0.5-1.9,1.5-2l8.6-1.2
				c1-0.1,1.9,0.5,2,1.5C249.8,73.4,249.1,74.3,248.1,74.5z"/>
		</g>
		<g id="XMLID_309_">
			<path id="XMLID_310_" class="st5" d="M270.7,9.7l-5.3,4.2c-0.6,0.5-1.5,0.4-2-0.2c-0.5-0.6-0.4-1.5,0.2-2l5.3-4.2
				c0.6-0.5,1.5-0.4,2,0.2C271.4,8.3,271.3,9.2,270.7,9.7z"/>
		</g>
		<g id="XMLID_311_">
			<path id="XMLID_312_" class="st5" d="M54.2,177.8l2.6,1.3c0.3,0.2,0.4,0.5,0.3,0.8c-0.2,0.3-0.5,0.4-0.8,0.3l-2.6-1.3
				c-0.3-0.2-0.4-0.5-0.3-0.8C53.5,177.7,53.9,177.6,54.2,177.8z"/>
		</g>
		<g id="XMLID_313_">
			<path id="XMLID_314_" class="st5" d="M169,65.7l4.1-3.4c0.5-0.4,1.2-0.3,1.5,0.1c0.4,0.5,0.3,1.2-0.1,1.5l-4.1,3.4
				c-0.5,0.4-1.2,0.3-1.5-0.1C168.4,66.8,168.5,66.1,169,65.7z"/>
		</g>
		<g id="XMLID_315_">
			<path id="XMLID_316_" class="st5" d="M35.8,39.8l-5.2,0.5c-0.6,0.1-1.1-0.4-1.2-1c-0.1-0.6,0.4-1.1,1-1.2l5.2-0.5
				c0.6-0.1,1.1,0.4,1.2,1C36.8,39.2,36.4,39.7,35.8,39.8z"/>
		</g>
		<g id="XMLID_317_">
			<path id="XMLID_318_" class="st5" d="M278.4,189.9l-2.4,1.4c-0.3,0.2-0.6,0.1-0.8-0.2c-0.2-0.3-0.1-0.6,0.2-0.8l2.4-1.4
				c0.3-0.2,0.6-0.1,0.8,0.2C278.8,189.4,278.7,189.7,278.4,189.9z"/>
		</g>
		<g id="XMLID_319_">
			<path id="XMLID_320_" class="st5" d="M137.1,236.4l1.5-8.3c0.2-0.9,1.1-1.6,2-1.4c0.9,0.2,1.6,1.1,1.4,2l-1.5,8.3
				c-0.2,0.9-1.1,1.6-2,1.4C137.6,238.2,136.9,237.3,137.1,236.4z"/>
		</g>
		<g id="XMLID_321_">
			<path id="XMLID_322_" class="st5" d="M12.1,24.7L8.8,29c-0.4,0.5-1.1,0.6-1.6,0.2c-0.5-0.4-0.6-1.1-0.2-1.6l3.3-4.3
				c0.4-0.5,1.1-0.6,1.6-0.2C12.3,23.5,12.4,24.2,12.1,24.7z"/>
		</g>
		<g id="XMLID_323_">
			<path id="XMLID_324_" class="st5" d="M108.5,88.2l2.3,1.7c0.3,0.2,0.3,0.6,0.1,0.8c-0.2,0.3-0.6,0.3-0.8,0.1l-2.3-1.7
				c-0.3-0.2-0.3-0.6-0.1-0.8C107.9,88.1,108.2,88,108.5,88.2z"/>
		</g>
	</g>
</g>
</svg>
